<mxfile host="app.diagrams.net" modified="2020-03-20T02:59:00.641Z" agent="Mozilla/5.0 (Windows NT 10.0; Win64; x64) AppleWebKit/537.36 (KHTML, like Gecko) Chrome/80.0.3987.132 Safari/537.36" etag="OBM6HE8n0A_1qY6uFmab" version="12.8.8" type="github">
  <diagram id="uK9xBFVL1dgCyRq9GXOv" name="第1頁">
    <mxGraphModel dx="1221" dy="538" grid="1" gridSize="10" guides="1" tooltips="1" connect="1" arrows="1" fold="1" page="1" pageScale="1" pageWidth="827" pageHeight="1169" math="0" shadow="0">
      <root>
        <mxCell id="0" />
        <mxCell id="1" parent="0" />
        <mxCell id="WkopTOb_S4lLgiDKxVie-1" value="&lt;span style=&quot;color: rgb(35 , 35 , 35) ; font-family: &amp;quot;arial&amp;quot; , &amp;quot;helvetica&amp;quot; , sans-serif , &amp;quot;pmingliu&amp;quot; ; font-size: 13px ; white-space: normal ; background-color: rgb(255 , 255 , 255)&quot;&gt;第一章 重新認識「想法整理」&lt;/span&gt;&lt;br style=&quot;color: rgb(35 , 35 , 35) ; font-family: &amp;quot;arial&amp;quot; , &amp;quot;helvetica&amp;quot; , sans-serif , &amp;quot;pmingliu&amp;quot; ; font-size: 13px ; white-space: normal ; background-color: rgb(255 , 255 , 255)&quot;&gt;&lt;span style=&quot;color: rgb(35 , 35 , 35) ; font-family: &amp;quot;arial&amp;quot; , &amp;quot;helvetica&amp;quot; , sans-serif , &amp;quot;pmingliu&amp;quot; ; font-size: 13px ; white-space: normal ; background-color: rgb(255 , 255 , 255)&quot;&gt;1. 誰需要學習整理想法？&amp;nbsp;&amp;nbsp;&amp;nbsp;&amp;nbsp;&lt;/span&gt;&lt;br style=&quot;color: rgb(35 , 35 , 35) ; font-family: &amp;quot;arial&amp;quot; , &amp;quot;helvetica&amp;quot; , sans-serif , &amp;quot;pmingliu&amp;quot; ; font-size: 13px ; white-space: normal ; background-color: rgb(255 , 255 , 255)&quot;&gt;&lt;span style=&quot;color: rgb(35 , 35 , 35) ; font-family: &amp;quot;arial&amp;quot; , &amp;quot;helvetica&amp;quot; , sans-serif , &amp;quot;pmingliu&amp;quot; ; font-size: 13px ; white-space: normal ; background-color: rgb(255 , 255 , 255)&quot;&gt;2. 是否具備整理想法技術所造成的差異&amp;nbsp;&amp;nbsp;&amp;nbsp;&amp;nbsp;&lt;/span&gt;&lt;br style=&quot;color: rgb(35 , 35 , 35) ; font-family: &amp;quot;arial&amp;quot; , &amp;quot;helvetica&amp;quot; , sans-serif , &amp;quot;pmingliu&amp;quot; ; font-size: 13px ; white-space: normal ; background-color: rgb(255 , 255 , 255)&quot;&gt;&lt;span style=&quot;color: rgb(35 , 35 , 35) ; font-family: &amp;quot;arial&amp;quot; , &amp;quot;helvetica&amp;quot; , sans-serif , &amp;quot;pmingliu&amp;quot; ; font-size: 13px ; white-space: normal ; background-color: rgb(255 , 255 , 255)&quot;&gt;3. 整理想法是一門技術&amp;nbsp; &amp;nbsp;&amp;nbsp;&lt;/span&gt;" style="rounded=1;whiteSpace=wrap;html=1;align=left;" vertex="1" parent="1">
          <mxGeometry x="50" y="100" width="240" height="100" as="geometry" />
        </mxCell>
        <mxCell id="WkopTOb_S4lLgiDKxVie-2" value="&lt;span style=&quot;color: rgb(35 , 35 , 35) ; font-family: &amp;#34;arial&amp;#34; , &amp;#34;helvetica&amp;#34; , sans-serif , &amp;#34;pmingliu&amp;#34; ; font-size: 13px ; background-color: rgb(255 , 255 , 255)&quot;&gt;第二章 整理不了想法的根本原因&amp;nbsp;&amp;nbsp;&amp;nbsp;&amp;nbsp;&lt;/span&gt;&lt;br style=&quot;color: rgb(35 , 35 , 35) ; font-family: &amp;#34;arial&amp;#34; , &amp;#34;helvetica&amp;#34; , sans-serif , &amp;#34;pmingliu&amp;#34; ; font-size: 13px ; background-color: rgb(255 , 255 , 255)&quot;&gt;&lt;span style=&quot;color: rgb(35 , 35 , 35) ; font-family: &amp;#34;arial&amp;#34; , &amp;#34;helvetica&amp;#34; , sans-serif , &amp;#34;pmingliu&amp;#34; ; font-size: 13px ; background-color: rgb(255 , 255 , 255)&quot;&gt;1. 整理不了想法的三大原因&amp;nbsp;&amp;nbsp;&amp;nbsp;&amp;nbsp;&lt;/span&gt;&lt;br style=&quot;color: rgb(35 , 35 , 35) ; font-family: &amp;#34;arial&amp;#34; , &amp;#34;helvetica&amp;#34; , sans-serif , &amp;#34;pmingliu&amp;#34; ; font-size: 13px ; background-color: rgb(255 , 255 , 255)&quot;&gt;&lt;span style=&quot;color: rgb(35 , 35 , 35) ; font-family: &amp;#34;arial&amp;#34; , &amp;#34;helvetica&amp;#34; , sans-serif , &amp;#34;pmingliu&amp;#34; ; font-size: 13px ; background-color: rgb(255 , 255 , 255)&quot;&gt;2. 將腦中無形想法可視化&lt;/span&gt;&lt;br style=&quot;color: rgb(35 , 35 , 35) ; font-family: &amp;#34;arial&amp;#34; , &amp;#34;helvetica&amp;#34; , sans-serif , &amp;#34;pmingliu&amp;#34; ; font-size: 13px ; background-color: rgb(255 , 255 , 255)&quot;&gt;&lt;span style=&quot;color: rgb(35 , 35 , 35) ; font-family: &amp;#34;arial&amp;#34; , &amp;#34;helvetica&amp;#34; , sans-serif , &amp;#34;pmingliu&amp;#34; ; font-size: 13px ; background-color: rgb(255 , 255 , 255)&quot;&gt;3. 運用整理想法的工具&amp;nbsp;&amp;nbsp;&amp;nbsp;&amp;nbsp;&lt;/span&gt;&lt;br style=&quot;color: rgb(35 , 35 , 35) ; font-family: &amp;#34;arial&amp;#34; , &amp;#34;helvetica&amp;#34; , sans-serif , &amp;#34;pmingliu&amp;#34; ; font-size: 13px ; background-color: rgb(255 , 255 , 255)&quot;&gt;&lt;span style=&quot;color: rgb(35 , 35 , 35) ; font-family: &amp;#34;arial&amp;#34; , &amp;#34;helvetica&amp;#34; , sans-serif , &amp;#34;pmingliu&amp;#34; ; font-size: 13px ; background-color: rgb(255 , 255 , 255)&quot;&gt;4. 善用整理想法的原理&amp;nbsp; &amp;nbsp;&lt;/span&gt;" style="rounded=1;whiteSpace=wrap;html=1;align=left;" vertex="1" parent="1">
          <mxGeometry x="350" y="100" width="240" height="100" as="geometry" />
        </mxCell>
        <mxCell id="WkopTOb_S4lLgiDKxVie-3" value="&lt;span style=&quot;color: rgb(35 , 35 , 35) ; font-family: &amp;#34;arial&amp;#34; , &amp;#34;helvetica&amp;#34; , sans-serif , &amp;#34;pmingliu&amp;#34; ; font-size: 13px ; background-color: rgb(255 , 255 , 255)&quot;&gt;第三章 聰明整理複雜思緒的方法&lt;/span&gt;&lt;br style=&quot;color: rgb(35 , 35 , 35) ; font-family: &amp;#34;arial&amp;#34; , &amp;#34;helvetica&amp;#34; , sans-serif , &amp;#34;pmingliu&amp;#34; ; font-size: 13px ; background-color: rgb(255 , 255 , 255)&quot;&gt;&lt;span style=&quot;color: rgb(35 , 35 , 35) ; font-family: &amp;#34;arial&amp;#34; , &amp;#34;helvetica&amp;#34; , sans-serif , &amp;#34;pmingliu&amp;#34; ; font-size: 13px ; background-color: rgb(255 , 255 , 255)&quot;&gt;1. 整理想法的藍圖&amp;nbsp;&amp;nbsp;&amp;nbsp;&amp;nbsp;&lt;/span&gt;&lt;br style=&quot;color: rgb(35 , 35 , 35) ; font-family: &amp;#34;arial&amp;#34; , &amp;#34;helvetica&amp;#34; , sans-serif , &amp;#34;pmingliu&amp;#34; ; font-size: 13px ; background-color: rgb(255 , 255 , 255)&quot;&gt;&lt;span style=&quot;color: rgb(35 , 35 , 35) ; font-family: &amp;#34;arial&amp;#34; , &amp;#34;helvetica&amp;#34; , sans-serif , &amp;#34;pmingliu&amp;#34; ; font-size: 13px ; background-color: rgb(255 , 255 , 255)&quot;&gt;2. 工具①曼陀羅圖&lt;/span&gt;&lt;br style=&quot;color: rgb(35 , 35 , 35) ; font-family: &amp;#34;arial&amp;#34; , &amp;#34;helvetica&amp;#34; , sans-serif , &amp;#34;pmingliu&amp;#34; ; font-size: 13px ; background-color: rgb(255 , 255 , 255)&quot;&gt;&lt;span style=&quot;color: rgb(35 , 35 , 35) ; font-family: &amp;#34;arial&amp;#34; , &amp;#34;helvetica&amp;#34; , sans-serif , &amp;#34;pmingliu&amp;#34; ; font-size: 13px ; background-color: rgb(255 , 255 , 255)&quot;&gt;3. 工具②心智圖、工具③數位心智圖&amp;nbsp;&amp;nbsp;&amp;nbsp;&amp;nbsp;&lt;/span&gt;&lt;br style=&quot;color: rgb(35 , 35 , 35) ; font-family: &amp;#34;arial&amp;#34; , &amp;#34;helvetica&amp;#34; , sans-serif , &amp;#34;pmingliu&amp;#34; ; font-size: 13px ; background-color: rgb(255 , 255 , 255)&quot;&gt;&lt;span style=&quot;color: rgb(35 , 35 , 35) ; font-family: &amp;#34;arial&amp;#34; , &amp;#34;helvetica&amp;#34; , sans-serif , &amp;#34;pmingliu&amp;#34; ; font-size: 13px ; background-color: rgb(255 , 255 , 255)&quot;&gt;4. 工具④3 的邏輯樹&amp;nbsp; &amp;nbsp;&amp;nbsp;&lt;/span&gt;" style="rounded=1;whiteSpace=wrap;html=1;align=left;" vertex="1" parent="1">
          <mxGeometry x="650" y="100" width="240" height="100" as="geometry" />
        </mxCell>
        <mxCell id="WkopTOb_S4lLgiDKxVie-4" value="&lt;span style=&quot;color: rgb(35 , 35 , 35) ; font-family: &amp;#34;arial&amp;#34; , &amp;#34;helvetica&amp;#34; , sans-serif , &amp;#34;pmingliu&amp;#34; ; font-size: 13px ; background-color: rgb(255 , 255 , 255)&quot;&gt;第四章 讓單純想法成為點子的方法&lt;/span&gt;&lt;br style=&quot;color: rgb(35 , 35 , 35) ; font-family: &amp;#34;arial&amp;#34; , &amp;#34;helvetica&amp;#34; , sans-serif , &amp;#34;pmingliu&amp;#34; ; font-size: 13px ; background-color: rgb(255 , 255 , 255)&quot;&gt;&lt;span style=&quot;color: rgb(35 , 35 , 35) ; font-family: &amp;#34;arial&amp;#34; , &amp;#34;helvetica&amp;#34; , sans-serif , &amp;#34;pmingliu&amp;#34; ; font-size: 13px ; background-color: rgb(255 , 255 , 255)&quot;&gt;1. 構思來自於想法整理&amp;nbsp;&amp;nbsp;&amp;nbsp;&amp;nbsp;&lt;/span&gt;&lt;br style=&quot;color: rgb(35 , 35 , 35) ; font-family: &amp;#34;arial&amp;#34; , &amp;#34;helvetica&amp;#34; , sans-serif , &amp;#34;pmingliu&amp;#34; ; font-size: 13px ; background-color: rgb(255 , 255 , 255)&quot;&gt;&lt;span style=&quot;color: rgb(35 , 35 , 35) ; font-family: &amp;#34;arial&amp;#34; , &amp;#34;helvetica&amp;#34; , sans-serif , &amp;#34;pmingliu&amp;#34; ; font-size: 13px ; background-color: rgb(255 , 255 , 255)&quot;&gt;2. 企畫的核心是解決問題&lt;/span&gt;&lt;br style=&quot;color: rgb(35 , 35 , 35) ; font-family: &amp;#34;arial&amp;#34; , &amp;#34;helvetica&amp;#34; , sans-serif , &amp;#34;pmingliu&amp;#34; ; font-size: 13px ; background-color: rgb(255 , 255 , 255)&quot;&gt;&lt;span style=&quot;color: rgb(35 , 35 , 35) ; font-family: &amp;#34;arial&amp;#34; , &amp;#34;helvetica&amp;#34; , sans-serif , &amp;#34;pmingliu&amp;#34; ; font-size: 13px ; background-color: rgb(255 , 255 , 255)&quot;&gt;3. 工具⑤腦力激盪法&amp;nbsp;&amp;nbsp;&amp;nbsp;&amp;nbsp;&lt;/span&gt;&lt;br style=&quot;color: rgb(35 , 35 , 35) ; font-family: &amp;#34;arial&amp;#34; , &amp;#34;helvetica&amp;#34; , sans-serif , &amp;#34;pmingliu&amp;#34; ; font-size: 13px ; background-color: rgb(255 , 255 , 255)&quot;&gt;&lt;span style=&quot;color: rgb(35 , 35 , 35) ; font-family: &amp;#34;arial&amp;#34; , &amp;#34;helvetica&amp;#34; , sans-serif , &amp;#34;pmingliu&amp;#34; ; font-size: 13px ; background-color: rgb(255 , 255 , 255)&quot;&gt;4. 工具⑥腦力傳寫法&amp;nbsp;&amp;nbsp;&amp;nbsp;&amp;nbsp;&lt;/span&gt;&lt;br style=&quot;color: rgb(35 , 35 , 35) ; font-family: &amp;#34;arial&amp;#34; , &amp;#34;helvetica&amp;#34; , sans-serif , &amp;#34;pmingliu&amp;#34; ; font-size: 13px ; background-color: rgb(255 , 255 , 255)&quot;&gt;&lt;span style=&quot;color: rgb(35 , 35 , 35) ; font-family: &amp;#34;arial&amp;#34; , &amp;#34;helvetica&amp;#34; , sans-serif , &amp;#34;pmingliu&amp;#34; ; font-size: 13px ; background-color: rgb(255 , 255 , 255)&quot;&gt;5. 工具⑦問題圖&amp;nbsp;&amp;nbsp;&amp;nbsp;&amp;nbsp;&lt;/span&gt;&lt;br style=&quot;color: rgb(35 , 35 , 35) ; font-family: &amp;#34;arial&amp;#34; , &amp;#34;helvetica&amp;#34; , sans-serif , &amp;#34;pmingliu&amp;#34; ; font-size: 13px ; background-color: rgb(255 , 255 , 255)&quot;&gt;&lt;span style=&quot;color: rgb(35 , 35 , 35) ; font-family: &amp;#34;arial&amp;#34; , &amp;#34;helvetica&amp;#34; , sans-serif , &amp;#34;pmingliu&amp;#34; ; font-size: 13px ; background-color: rgb(255 , 255 , 255)&quot;&gt;6. 一頁企畫書的製作法&amp;nbsp; &amp;nbsp;&lt;/span&gt;" style="rounded=1;whiteSpace=wrap;html=1;align=left;" vertex="1" parent="1">
          <mxGeometry x="950" y="100" width="240" height="100" as="geometry" />
        </mxCell>
        <mxCell id="WkopTOb_S4lLgiDKxVie-5" value="&lt;span style=&quot;color: rgb(35 , 35 , 35) ; font-family: &amp;#34;arial&amp;#34; , &amp;#34;helvetica&amp;#34; , sans-serif , &amp;#34;pmingliu&amp;#34; ; font-size: 13px ; background-color: rgb(255 , 255 , 255)&quot;&gt;第六章 掌握整理想法技術可以連帶提升演說力！&lt;/span&gt;&lt;br style=&quot;color: rgb(35 , 35 , 35) ; font-family: &amp;#34;arial&amp;#34; , &amp;#34;helvetica&amp;#34; , sans-serif , &amp;#34;pmingliu&amp;#34; ; font-size: 13px ; background-color: rgb(255 , 255 , 255)&quot;&gt;&lt;span style=&quot;color: rgb(35 , 35 , 35) ; font-family: &amp;#34;arial&amp;#34; , &amp;#34;helvetica&amp;#34; , sans-serif , &amp;#34;pmingliu&amp;#34; ; font-size: 13px ; background-color: rgb(255 , 255 , 255)&quot;&gt;1. 害怕演說的你&amp;nbsp;&amp;nbsp;&amp;nbsp;&amp;nbsp;&lt;/span&gt;&lt;br style=&quot;color: rgb(35 , 35 , 35) ; font-family: &amp;#34;arial&amp;#34; , &amp;#34;helvetica&amp;#34; , sans-serif , &amp;#34;pmingliu&amp;#34; ; font-size: 13px ; background-color: rgb(255 , 255 , 255)&quot;&gt;&lt;span style=&quot;color: rgb(35 , 35 , 35) ; font-family: &amp;#34;arial&amp;#34; , &amp;#34;helvetica&amp;#34; , sans-serif , &amp;#34;pmingliu&amp;#34; ; font-size: 13px ; background-color: rgb(255 , 255 , 255)&quot;&gt;2. 演說前需要整理想法的理由&amp;nbsp;&amp;nbsp;&amp;nbsp;&amp;nbsp;&lt;/span&gt;&lt;br style=&quot;color: rgb(35 , 35 , 35) ; font-family: &amp;#34;arial&amp;#34; , &amp;#34;helvetica&amp;#34; , sans-serif , &amp;#34;pmingliu&amp;#34; ; font-size: 13px ; background-color: rgb(255 , 255 , 255)&quot;&gt;&lt;span style=&quot;color: rgb(35 , 35 , 35) ; font-family: &amp;#34;arial&amp;#34; , &amp;#34;helvetica&amp;#34; , sans-serif , &amp;#34;pmingliu&amp;#34; ; font-size: 13px ; background-color: rgb(255 , 255 , 255)&quot;&gt;3. 演說大師也從整理想法開始&amp;nbsp;&amp;nbsp;&amp;nbsp;&amp;nbsp;&lt;/span&gt;&lt;br style=&quot;color: rgb(35 , 35 , 35) ; font-family: &amp;#34;arial&amp;#34; , &amp;#34;helvetica&amp;#34; , sans-serif , &amp;#34;pmingliu&amp;#34; ; font-size: 13px ; background-color: rgb(255 , 255 , 255)&quot;&gt;&lt;span style=&quot;color: rgb(35 , 35 , 35) ; font-family: &amp;#34;arial&amp;#34; , &amp;#34;helvetica&amp;#34; , sans-serif , &amp;#34;pmingliu&amp;#34; ; font-size: 13px ; background-color: rgb(255 , 255 , 255)&quot;&gt;4. 工具⑩整理想法演說的五階段過程&lt;/span&gt;" style="rounded=1;whiteSpace=wrap;html=1;align=left;" vertex="1" parent="1">
          <mxGeometry x="1550" y="100" width="240" height="100" as="geometry" />
        </mxCell>
        <mxCell id="WkopTOb_S4lLgiDKxVie-7" value="&lt;span style=&quot;color: rgb(35 , 35 , 35) ; font-family: &amp;#34;arial&amp;#34; , &amp;#34;helvetica&amp;#34; , sans-serif , &amp;#34;pmingliu&amp;#34; ; font-size: 13px ; background-color: rgb(255 , 255 , 255)&quot;&gt;第五章 長久記憶的閱讀整理技術&lt;/span&gt;&lt;br style=&quot;color: rgb(35 , 35 , 35) ; font-family: &amp;#34;arial&amp;#34; , &amp;#34;helvetica&amp;#34; , sans-serif , &amp;#34;pmingliu&amp;#34; ; font-size: 13px ; background-color: rgb(255 , 255 , 255)&quot;&gt;&lt;span style=&quot;color: rgb(35 , 35 , 35) ; font-family: &amp;#34;arial&amp;#34; , &amp;#34;helvetica&amp;#34; , sans-serif , &amp;#34;pmingliu&amp;#34; ; font-size: 13px ; background-color: rgb(255 , 255 , 255)&quot;&gt;1. 閱讀整理技術的三階段&lt;/span&gt;&lt;br style=&quot;color: rgb(35 , 35 , 35) ; font-family: &amp;#34;arial&amp;#34; , &amp;#34;helvetica&amp;#34; , sans-serif , &amp;#34;pmingliu&amp;#34; ; font-size: 13px ; background-color: rgb(255 , 255 , 255)&quot;&gt;&lt;span style=&quot;color: rgb(35 , 35 , 35) ; font-family: &amp;#34;arial&amp;#34; , &amp;#34;helvetica&amp;#34; , sans-serif , &amp;#34;pmingliu&amp;#34; ; font-size: 13px ; background-color: rgb(255 , 255 , 255)&quot;&gt;2. 讀書前的閱讀&amp;nbsp;&amp;nbsp;&amp;nbsp;&amp;nbsp;&lt;/span&gt;&lt;br style=&quot;color: rgb(35 , 35 , 35) ; font-family: &amp;#34;arial&amp;#34; , &amp;#34;helvetica&amp;#34; , sans-serif , &amp;#34;pmingliu&amp;#34; ; font-size: 13px ; background-color: rgb(255 , 255 , 255)&quot;&gt;&lt;span style=&quot;color: rgb(35 , 35 , 35) ; font-family: &amp;#34;arial&amp;#34; , &amp;#34;helvetica&amp;#34; , sans-serif , &amp;#34;pmingliu&amp;#34; ; font-size: 13px ; background-color: rgb(255 , 255 , 255)&quot;&gt;3. 讀書中的閱讀&amp;nbsp;&amp;nbsp;&amp;nbsp;&amp;nbsp;&lt;/span&gt;&lt;br style=&quot;color: rgb(35 , 35 , 35) ; font-family: &amp;#34;arial&amp;#34; , &amp;#34;helvetica&amp;#34; , sans-serif , &amp;#34;pmingliu&amp;#34; ; font-size: 13px ; background-color: rgb(255 , 255 , 255)&quot;&gt;&lt;span style=&quot;color: rgb(35 , 35 , 35) ; font-family: &amp;#34;arial&amp;#34; , &amp;#34;helvetica&amp;#34; , sans-serif , &amp;#34;pmingliu&amp;#34; ; font-size: 13px ; background-color: rgb(255 , 255 , 255)&quot;&gt;4. 讀書後的閱讀─工具⑧讀書報告、工具⑨閱讀清單&amp;nbsp; &amp;nbsp;&amp;nbsp;&lt;/span&gt;" style="rounded=1;whiteSpace=wrap;html=1;align=left;" vertex="1" parent="1">
          <mxGeometry x="1250" y="100" width="240" height="100" as="geometry" />
        </mxCell>
        <mxCell id="WkopTOb_S4lLgiDKxVie-8" value="&lt;span style=&quot;color: rgb(35 , 35 , 35) ; font-family: &amp;#34;arial&amp;#34; , &amp;#34;helvetica&amp;#34; , sans-serif , &amp;#34;pmingliu&amp;#34; ; font-size: 13px ; background-color: rgb(255 , 255 , 255)&quot;&gt;第七章 整理想法具有改變人生的力量&lt;/span&gt;&lt;br style=&quot;color: rgb(35 , 35 , 35) ; font-family: &amp;#34;arial&amp;#34; , &amp;#34;helvetica&amp;#34; , sans-serif , &amp;#34;pmingliu&amp;#34; ; font-size: 13px ; background-color: rgb(255 , 255 , 255)&quot;&gt;&lt;span style=&quot;color: rgb(35 , 35 , 35) ; font-family: &amp;#34;arial&amp;#34; , &amp;#34;helvetica&amp;#34; , sans-serif , &amp;#34;pmingliu&amp;#34; ; font-size: 13px ; background-color: rgb(255 , 255 , 255)&quot;&gt;1. 人生整理技術的三種工具&lt;/span&gt;&lt;br style=&quot;color: rgb(35 , 35 , 35) ; font-family: &amp;#34;arial&amp;#34; , &amp;#34;helvetica&amp;#34; , sans-serif , &amp;#34;pmingliu&amp;#34; ; font-size: 13px ; background-color: rgb(255 , 255 , 255)&quot;&gt;&lt;span style=&quot;color: rgb(35 , 35 , 35) ; font-family: &amp;#34;arial&amp;#34; , &amp;#34;helvetica&amp;#34; , sans-serif , &amp;#34;pmingliu&amp;#34; ; font-size: 13px ; background-color: rgb(255 , 255 , 255)&quot;&gt;2. 工具⑪撰寫日記&amp;nbsp;&amp;nbsp;&amp;nbsp;&amp;nbsp;&lt;/span&gt;&lt;br style=&quot;color: rgb(35 , 35 , 35) ; font-family: &amp;#34;arial&amp;#34; , &amp;#34;helvetica&amp;#34; , sans-serif , &amp;#34;pmingliu&amp;#34; ; font-size: 13px ; background-color: rgb(255 , 255 , 255)&quot;&gt;&lt;span style=&quot;color: rgb(35 , 35 , 35) ; font-family: &amp;#34;arial&amp;#34; , &amp;#34;helvetica&amp;#34; , sans-serif , &amp;#34;pmingliu&amp;#34; ; font-size: 13px ; background-color: rgb(255 , 255 , 255)&quot;&gt;3. 工具⑫人生座標圖&amp;nbsp;&amp;nbsp;&amp;nbsp;&amp;nbsp;&lt;/span&gt;&lt;br style=&quot;color: rgb(35 , 35 , 35) ; font-family: &amp;#34;arial&amp;#34; , &amp;#34;helvetica&amp;#34; , sans-serif , &amp;#34;pmingliu&amp;#34; ; font-size: 13px ; background-color: rgb(255 , 255 , 255)&quot;&gt;&lt;span style=&quot;color: rgb(35 , 35 , 35) ; font-family: &amp;#34;arial&amp;#34; , &amp;#34;helvetica&amp;#34; , sans-serif , &amp;#34;pmingliu&amp;#34; ; font-size: 13px ; background-color: rgb(255 , 255 , 255)&quot;&gt;4. 工具⑬願望清單&amp;nbsp; &amp;nbsp;&amp;nbsp;&lt;/span&gt;" style="rounded=1;whiteSpace=wrap;html=1;align=left;" vertex="1" parent="1">
          <mxGeometry x="1850" y="100" width="240" height="100" as="geometry" />
        </mxCell>
      </root>
    </mxGraphModel>
  </diagram>
</mxfile>
